<?xml version="1.0" encoding="iso-8859-1"?>
<!-- Generator: Adobe Illustrator 19.0.0, SVG Export Plug-In . SVG Version: 6.00 Build 0)  -->
<svg version="1.1" id="Capa_1" xmlns="http://www.w3.org/2000/svg" xmlns:xlink="http://www.w3.org/1999/xlink" x="0px" y="0px"
	 viewBox="0 0 512 512" style="enable-background:new 0 0 512 512;" xml:space="preserve">
<g>
	<g>
		<path d="M308.463,263.903l-18.221-8.166c-5.876-2.635-10.563-7.321-13.196-13.197l-8.166-18.221
			c-1.207-2.693-3.883-4.426-6.833-4.426c-2.951,0-5.626,1.732-6.833,4.426l-8.166,18.221c-2.634,5.876-7.32,10.562-13.196,13.197
			l-18.222,8.166c-2.693,1.206-4.426,3.883-4.426,6.833c0,2.95,1.733,5.627,4.426,6.833l18.222,8.166
			c5.876,2.635,10.563,7.321,13.196,13.197l8.166,18.221c1.207,2.693,3.883,4.426,6.833,4.426c2.951,0,5.626-1.732,6.833-4.426
			l8.166-18.221c2.634-5.876,7.32-10.563,13.196-13.197l18.221-8.166c2.693-1.206,4.426-3.883,4.426-6.833
			C312.889,267.786,311.156,265.109,308.463,263.903z M284.117,272.07c-9.235,4.138-16.598,11.503-20.738,20.737l-1.333,2.975
			l-1.333-2.975c-4.139-9.234-11.503-16.599-20.738-20.737l-2.975-1.334l2.975-1.334c9.234-4.139,16.599-11.503,20.738-20.737
			l1.333-2.975l1.333,2.975c4.139,9.234,11.503,16.599,20.738,20.737l2.975,1.334L284.117,272.07z"/>
	</g>
</g>
<g>
	<g>
		<path d="M97.952,73.648L79.73,65.481c-5.876-2.635-10.563-7.321-13.196-13.197l-8.167-18.221
			c-1.206-2.693-3.882-4.426-6.833-4.426s-5.626,1.732-6.833,4.426l-8.166,18.221c-2.634,5.876-7.32,10.563-13.196,13.197
			L5.119,73.648c-2.693,1.206-4.426,3.883-4.426,6.833c0,2.95,1.733,5.627,4.426,6.833L23.34,95.48
			c5.876,2.634,10.563,7.321,13.196,13.197l8.166,18.221c1.206,2.694,3.882,4.426,6.832,4.426c2.95,0,5.626-1.732,6.833-4.426
			l8.167-18.221c2.634-5.876,7.319-10.563,13.196-13.197l18.222-8.166c2.693-1.206,4.426-3.883,4.426-6.833
			C102.378,77.53,100.645,74.854,97.952,73.648z M73.604,81.815c-9.235,4.139-16.598,11.503-20.737,20.737l-1.334,2.975
			l-1.333-2.975c-4.139-9.234-11.504-16.597-20.738-20.737l-2.975-1.334l2.975-1.334c9.234-4.139,16.599-11.502,20.738-20.737
			l1.333-2.975l1.334,2.975c4.138,9.234,11.502,16.599,20.737,20.737l2.975,1.334L73.604,81.815z"/>
	</g>
</g>
<g>
	<g>
		<path d="M506.883,41.153l-16.269-7.292c-5.068-2.271-9.11-6.313-11.38-11.38l-7.292-16.27c-1.207-2.693-3.883-4.426-6.833-4.426
			c-2.95,0-5.626,1.732-6.833,4.426l-7.292,16.27c-2.271,5.067-6.313,9.108-11.379,11.38l-16.27,7.292
			c-2.693,1.206-4.426,3.883-4.426,6.833c0,2.95,1.733,5.627,4.426,6.833l16.269,7.292c5.068,2.271,9.109,6.313,11.379,11.379
			l7.292,16.27c1.207,2.693,3.883,4.426,6.833,4.426s5.626-1.732,6.833-4.426l7.292-16.27c2.271-5.067,6.313-9.108,11.379-11.379
			l16.269-7.292c2.693-1.206,4.426-3.883,4.426-6.833C511.307,45.035,509.575,42.359,506.883,41.153z M484.488,48.444
			c-8.425,3.776-15.144,10.496-18.921,18.92l-0.459,1.024l-0.459-1.024c-3.776-8.424-10.495-15.143-18.921-18.92l-1.023-0.459
			l1.024-0.459c8.425-3.777,15.144-10.496,18.92-18.92l0.459-1.024l0.459,1.024c3.776,8.425,10.496,15.144,18.921,18.92l1.023,0.459
			L484.488,48.444z"/>
	</g>
</g>
<g>
	<g>
		<path d="M466.796,178.397c-1.406-1.413-3.315-2.206-5.307-2.206h-46.021v-90.7c0-1.222-0.299-2.371-0.818-3.39
			c-0.012-0.024-0.019-0.049-0.031-0.072l-20.733-40.934v-0.001L375.746,5.276c-1.275-2.517-3.858-4.104-6.68-4.104
			s-5.405,1.587-6.68,4.104l-18.142,35.819c-0.001,0.002-0.002,0.005-0.003,0.007l-20.73,40.928
			c-0.012,0.023-0.019,0.048-0.031,0.072c-0.519,1.018-0.818,2.168-0.818,3.39v39.47c0,4.136,3.352,7.488,7.488,7.488
			s7.488-3.351,7.488-7.488V92.98h62.856v83.165h-62.856v-21.233c0-4.136-3.352-7.488-7.488-7.488s-7.488,3.351-7.488,7.488v21.279
			H307.96V7.488c0-4.136-3.352-7.488-7.488-7.488h-76.851c-4.135,0-7.488,3.351-7.488,7.488v32.283c0,4.136,3.352,7.488,7.488,7.488
			c4.135,0,7.488-3.351,7.488-7.488V14.975h61.875v32.284h-16.119c-4.135,0-7.488,3.351-7.488,7.488
			c0,4.136,3.352,7.488,7.488,7.488h16.119v18.363h-25.662c-4.135,0-7.488,3.351-7.488,7.488c0,4.136,3.352,7.488,7.488,7.488
			h25.662v18.364h-16.119c-4.135,0-7.488,3.351-7.488,7.488c0,4.136,3.352,7.488,7.488,7.488h16.119v18.364h-25.662
			c-4.135,0-7.488,3.351-7.488,7.488c0,4.136,3.352,7.488,7.488,7.488h25.662v13.896h-61.875V69.72c0-4.136-3.352-7.488-7.488-7.488
			c-4.135,0-7.488,3.351-7.488,7.488v106.47h-18.75l-5.132-32.334c3.53-0.603,6.22-3.67,6.22-7.373v-28.008
			c0-3.551-2.474-6.517-5.79-7.287c3.731-6.331,5.79-13.619,5.79-21.203c0-3.399,0-13.746-18.062-46.933
			c-8.604-15.81-17.066-29.05-17.422-29.605C161.612,1.3,159.234,0,156.683,0c-2.553,0-4.929,1.3-6.305,3.449
			c-0.356,0.556-8.818,13.795-17.422,29.605c-18.062,33.187-18.062,43.533-18.062,46.933c0,7.583,2.06,14.871,5.79,21.203
			c-3.317,0.77-5.79,3.736-5.79,7.287v28.008c0,3.703,2.69,6.769,6.221,7.373l-5.133,32.334H89.815
			c-3.093,0-5.867,1.901-6.983,4.785c-11.257,29.094-32.143,79.636-43.59,107.174c-2.473,5.946-1.815,12.695,1.759,18.051
			c3.576,5.359,9.559,8.559,16.004,8.559h23.556c3.441,17.747,13.692,68.788,21.69,89.901c7.507,19.819,25.254,31.369,51.324,33.403
			c10.914,0.851,21.052-0.151,27.682-1.153l12.214,68.908c0.634,3.576,3.742,6.181,7.373,6.181h204.03
			c2.185,0,4.262-0.954,5.685-2.614c1.423-1.659,2.049-3.857,1.715-6.017l-18.495-119.701c11.168-16.341,21.23-32.631,29.931-48.462
			c1.993-3.624,0.669-8.176-2.954-10.169c-3.624-1.992-8.176-0.67-10.168,2.954c-8.896,16.183-19.267,32.881-30.826,49.633
			c-1.086,1.574-1.529,3.506-1.237,5.396l17.614,114.003H207.12l-12.436-70.163c-0.36-2.037-1.548-3.834-3.281-4.965
			c-1.733-1.13-3.857-1.494-5.864-1.004c-0.56,0.138-56.113,13.233-69.283-21.535c-9.084-23.981-22.013-92.77-22.142-93.462
			c-0.664-3.542-3.756-6.11-7.36-6.11H57.006c-2.06,0-3.167-1.326-3.547-1.896c-0.379-0.568-1.176-2.096-0.388-3.99
			c10.871-26.15,30.236-73.008,41.866-102.732H453.83c-1.414,34.084-11.414,71.177-29.776,110.39
			c-1.754,3.745-0.14,8.203,3.605,9.956c3.746,1.754,8.203,0.141,9.956-3.605c20.65-44.099,31.2-85.885,31.362-124.197
			C468.986,181.721,468.201,179.808,466.796,178.397z M369.067,25.231l5.956,11.76H363.11L369.067,25.231z M342.377,77.926
			l13.148-25.96h27.082l13.148,25.96H342.377z M131.151,176.145l5.107-32.173h40.849l5.107,32.173H131.151z M183.496,128.997
			h-53.628v-13.032h7.707h38.213h7.708V128.997z M173.353,100.99h-33.342c-6.387-5.074-10.143-12.776-10.143-21.002
			c0-5.869,7.397-26.409,26.771-58.291c3.035,5.056,6.836,11.568,10.617,18.516c14.658,26.933,16.24,36.788,16.24,39.775
			C183.496,88.214,179.741,95.916,173.353,100.99z"/>
	</g>
</g>
<g>
</g>
<g>
</g>
<g>
</g>
<g>
</g>
<g>
</g>
<g>
</g>
<g>
</g>
<g>
</g>
<g>
</g>
<g>
</g>
<g>
</g>
<g>
</g>
<g>
</g>
<g>
</g>
<g>
</g>
</svg>
