<?xml version="1.0" encoding="iso-8859-1"?>
<!-- Generator: Adobe Illustrator 19.0.0, SVG Export Plug-In . SVG Version: 6.00 Build 0)  -->
<svg version="1.1" id="Capa_1" xmlns="http://www.w3.org/2000/svg" xmlns:xlink="http://www.w3.org/1999/xlink" x="0px" y="0px"
	 viewBox="0 0 512 512" style="enable-background:new 0 0 512 512;" xml:space="preserve">
<g>
	<g>
		<path d="M299.069,66.93C297.21,65.07,294.63,64,292,64s-5.21,1.07-7.07,2.93C283.07,68.79,282,71.37,282,74s1.069,5.21,2.93,7.07
			c1.861,1.86,4.44,2.93,7.07,2.93s5.21-1.07,7.069-2.93C300.93,79.21,302,76.63,302,74S300.93,68.79,299.069,66.93z"/>
	</g>
</g>
<g>
	<g>
		<path d="M210,32h-72c-5.522,0-10,4.477-10,10s4.478,10,10,10h72c5.522,0,10-4.477,10-10S215.522,32,210,32z"/>
	</g>
</g>
<g>
	<g>
		<path d="M174,432.022c-14.337,0-26,11.664-26,26s11.663,26,26,26c14.337,0,26-11.664,26-26S188.337,432.022,174,432.022z
			 M174,464.022c-3.309,0-6-2.691-6-6c0-3.309,2.691-6,6-6s6,2.691,6,6C180,461.331,177.309,464.022,174,464.022z"/>
	</g>
</g>
<g>
	<g>
		<path d="M502,252H348v-49.948h121.344c23.521,0,42.656-19.136,42.656-42.657s-19.136-42.656-42.656-42.656
			c-0.988,0-1.973,0.034-2.952,0.101c-5.57-35.124-36.063-62.065-72.729-62.065c-16.755,0-32.702,5.593-45.662,15.87V38
			c0-20.953-17.047-38-38-38H38C17.047,0,0,17.047,0,38v436c0,20.953,17.047,38,38,38h464c5.522,0,10-4.477,10-10V262
			C512,256.477,507.522,252,502,252z M20,132h85.271c5.522,0,10-4.477,10-10s-4.478-10-10-10H20V84h225c5.522,0,10-4.477,10-10
			s-4.478-10-10-10H20V38c0-9.925,8.075-18,18-18h272c9.925,0,18,8.075,18,18v55.504c0,0.449,0.04,0.887,0.097,1.32
			c-3.626,7.063-6.086,14.691-7.266,22.633C301.033,121.143,286,138.546,286,159.395c0,9.169,2.918,17.665,7.86,24.627H192
			c-5.522,0-10,4.477-10,10v54H88c-5.522,0-10,4.477-10,10v146H20V132z M145.667,367.955H98v-19.978h47.667c5.522,0,10-4.477,10-10
			s-4.478-10-10-10H98V308h47.667c5.522,0,10-4.477,10-10s-4.478-10-10-10H98v-19.978h84v136H98v-16.067h47.667
			c5.522,0,10-4.477,10-10S151.189,367.955,145.667,367.955z M328,474c0,9.925-8.075,18-18,18h-35.012H38c-9.925,0-18-8.075-18-18
			v-49.978h308V474z M328,404.023h-17v-26.26c0-5.523-4.478-10-10-10c-5.522,0-10,4.477-10,10v26.26h-16v-26.26
			c0-5.523-4.478-10-10-10c-5.522,0-10,4.477-10,10v26.26h-16v-26.26c0-5.523-4.478-10-10-10c-5.522,0-10,4.477-10,10v26.26h-17
			v-200h126V404.023z M306,159.396c0-12.493,10.163-22.656,22.656-22.656c0.323,0,0.645,0.013,0.964,0.026
			c2.694,0.114,5.292-0.854,7.251-2.685c1.96-1.831,3.102-4.373,3.17-7.054c0.741-29.3,24.294-52.252,53.621-52.252
			c27.762,0,50.662,21.201,53.368,48.262c-2.833,1.74-5.46,3.807-7.848,6.195c-4.565,4.564-7.959,9.951-10.087,16.009
			c-1.829,5.211,0.911,10.918,6.122,12.749c1.097,0.385,2.214,0.568,3.313,0.568c4.127,0,7.99-2.575,9.436-6.689
			c1.126-3.208,2.929-6.065,5.357-8.493c2.11-2.111,4.559-3.756,7.277-4.891c0.047-0.02,0.09-0.045,0.137-0.065
			c0.082-0.03,0.167-0.049,0.248-0.081c2.67-1.061,5.482-1.599,8.358-1.599c12.493,0,22.656,10.164,22.656,22.656
			c0,12.493-10.163,22.657-22.656,22.657H328.656C316.163,182.053,306,171.889,306,159.396z M492,492H343.457
			c2.896-5.361,4.543-11.491,4.543-18v-42h144V492z M492,412H348v-60h144V412z M492,332H348v-60h144V332z"/>
	</g>
</g>
<g>
	<g>
		<path d="M422,282c-5.522,0-10,4.477-10,10v20c0,5.523,4.478,10,10,10c5.522,0,10-4.477,10-10v-20C432,286.477,427.522,282,422,282
			z"/>
	</g>
</g>
<g>
	<g>
		<path d="M462,282c-5.522,0-10,4.477-10,10v20c0,5.523,4.478,10,10,10c5.522,0,10-4.477,10-10v-20C472,286.477,467.522,282,462,282
			z"/>
	</g>
</g>
<g>
	<g>
		<path d="M382,282c-5.522,0-10,4.477-10,10v20c0,5.523,4.478,10,10,10c5.522,0,10-4.477,10-10v-20C392,286.477,387.522,282,382,282
			z"/>
	</g>
</g>
<g>
	<g>
		<path d="M265,219.32c-5.522,0-10,4.477-10,10v39.742c0,5.523,4.478,10,10,10c5.522,0,10-4.477,10-10V229.32
			C275,223.797,270.522,219.32,265,219.32z"/>
	</g>
</g>
<g>
	<g>
		<path d="M229,219.32c-5.522,0-10,4.477-10,10v39.742c0,5.523,4.478,10,10,10c5.522,0,10-4.477,10-10V229.32
			C239,223.797,234.522,219.32,229,219.32z"/>
	</g>
</g>
<g>
	<g>
		<path d="M265,293.542c-5.522,0-10,4.477-10,10v39.743c0,5.523,4.478,10,10,10c5.522,0,10-4.477,10-10v-39.743
			C275,298.019,270.522,293.542,265,293.542z"/>
	</g>
</g>
<g>
	<g>
		<path d="M229,293.542c-5.522,0-10,4.477-10,10v39.743c0,5.523,4.478,10,10,10c5.522,0,10-4.477,10-10v-39.743
			C239,298.019,234.522,293.542,229,293.542z"/>
	</g>
</g>
<g>
	<g>
		<path d="M301,219.32c-5.522,0-10,4.477-10,10v39.742c0,5.523,4.478,10.001,10,10.001c5.522,0,10-4.477,10-10V229.32
			C311,223.797,306.522,219.32,301,219.32z"/>
	</g>
</g>
<g>
	<g>
		<path d="M301,293.542c-5.522,0-10,4.477-10,10v39.743c0,5.523,4.478,10,10,10c5.522,0,10-4.477,10-10v-39.743
			C311,298.019,306.522,293.542,301,293.542z"/>
	</g>
</g>
<g>
	<g>
		<path d="M422,362c-5.522,0-10,4.477-10,10v20c0,5.523,4.478,10,10,10c5.522,0,10-4.477,10-10v-20C432,366.477,427.522,362,422,362
			z"/>
	</g>
</g>
<g>
	<g>
		<path d="M462,362c-5.522,0-10,4.477-10,10v20c0,5.523,4.478,10,10,10c5.522,0,10-4.477,10-10v-20C472,366.477,467.522,362,462,362
			z"/>
	</g>
</g>
<g>
	<g>
		<path d="M382,362c-5.522,0-10,4.477-10,10v20c0,5.523,4.478,10,10,10c5.522,0,10-4.477,10-10v-20C392,366.477,387.522,362,382,362
			z"/>
	</g>
</g>
<g>
	<g>
		<path d="M422,442c-5.522,0-10,4.477-10,10v20c0,5.523,4.478,10,10,10c5.522,0,10-4.477,10-10v-20C432,446.477,427.522,442,422,442
			z"/>
	</g>
</g>
<g>
	<g>
		<path d="M462,442c-5.522,0-10,4.477-10,10v20c0,5.523,4.478,10,10,10c5.522,0,10-4.477,10-10v-20C472,446.477,467.522,442,462,442
			z"/>
	</g>
</g>
<g>
	<g>
		<path d="M382,442c-5.522,0-10,4.477-10,10v20c0,5.523,4.478,10,10,10c5.522,0,10-4.477,10-10v-20C392,446.477,387.522,442,382,442
			z"/>
	</g>
</g>
<g>
	<g>
		<path d="M159.34,114.93c-1.861-1.86-4.43-2.93-7.07-2.93c-2.63,0-5.21,1.07-7.069,2.93c-1.86,1.86-2.931,4.44-2.931,7.07
			s1.07,5.21,2.931,7.07c1.859,1.86,4.439,2.93,7.069,2.93s5.21-1.07,7.07-2.93s2.93-4.44,2.93-7.07S161.201,116.79,159.34,114.93z"
			/>
	</g>
</g>
<g>
</g>
<g>
</g>
<g>
</g>
<g>
</g>
<g>
</g>
<g>
</g>
<g>
</g>
<g>
</g>
<g>
</g>
<g>
</g>
<g>
</g>
<g>
</g>
<g>
</g>
<g>
</g>
<g>
</g>
</svg>
