<svg class="svg-icon" style="width: 1em; height: 1em;vertical-align: middle;fill: currentColor;overflow: hidden;" viewBox="0 0 1024 1024" version="1.1" xmlns="http://www.w3.org/2000/svg"><path d="M612.693333 607.146667a160.426667 160.426667 0 0 1-201.386666 0 42.666667 42.666667 0 0 0-54.613334 65.706666 242.346667 242.346667 0 0 0 310.613334 0 42.666667 42.666667 0 1 0-54.613334-65.706666z m-219.733333-157.44a42.666667 42.666667 0 0 0 60.16 0 42.666667 42.666667 0 0 0 0-60.16 131.413333 131.413333 0 0 0-180.906667 0 42.666667 42.666667 0 1 0 60.16 60.16 42.666667 42.666667 0 0 1 60.586667 0z m358.826667-60.16a131.413333 131.413333 0 0 0-180.906667 0 42.666667 42.666667 0 0 0 60.16 60.16 42.666667 42.666667 0 0 1 60.586667 0 42.666667 42.666667 0 0 0 60.16 0 42.666667 42.666667 0 0 0 0-60.16zM512 85.333333a426.666667 426.666667 0 1 0 426.666667 426.666667A426.666667 426.666667 0 0 0 512 85.333333z m0 768a341.333333 341.333333 0 1 1 341.333333-341.333333 341.333333 341.333333 0 0 1-341.333333 341.333333z"  /></svg>